<svg xmlns="http://www.w3.org/2000/svg" width="95" height="79.667" viewBox="0 0 95 79.667">
  <g id="icon-international" transform="translate(-855 -536)">
    <g id="Groupe_302" data-name="Groupe 302" transform="translate(864.41 537)">
      <path id="Tracé_324" data-name="Tracé 324" d="M936.884,594a38.355,38.355,0,0,1-72.384-18.17,39.558,39.558,0,0,1,.394-5.577" transform="translate(-864.5 -537)" fill="none" stroke="#000" stroke-linecap="round" stroke-linejoin="round" stroke-width="2"/>
      <path id="Tracé_325" data-name="Tracé 325" d="M868.5,558.652a38.359,38.359,0,0,1,72.885,17.181,39.71,39.71,0,0,1-.219,4.167" transform="translate(-864.543 -537)" fill="none" stroke="#000" stroke-linecap="round" stroke-linejoin="round" stroke-width="2"/>
    </g>
    <path id="Tracé_326" data-name="Tracé 326" d="M940.3,565.248c5.782,3,9.2,6.721,9.2,10.752,0,9.941-20.819,18-46.5,18" transform="translate(-0.5)" fill="none" stroke="#000" stroke-linecap="round" stroke-linejoin="round" stroke-width="2"/>
    <path id="Tracé_327" data-name="Tracé 327" d="M865.862,587.086C859.683,584.03,856,580.181,856,576c0-9.941,20.819-18,46.5-18" fill="none" stroke="#000" stroke-linecap="round" stroke-linejoin="round" stroke-width="2"/>
    <path id="Tracé_328" data-name="Tracé 328" d="M895,548.1l9.794,9.9L895,567.9" transform="translate(-0.415)" fill="none" stroke="#000" stroke-linecap="round" stroke-linejoin="round" stroke-width="2"/>
    <path id="Tracé_329" data-name="Tracé 329" d="M907.631,599.463C905.8,605,899.217,605,897.731,605c-1.73,0-5.187-6.989-5.187-8.736s1.729-3.495,1.729-5.243-3.457-5.242-3.457-5.242c0-6.99-5.187-5.241-10.374-5.241s-5.184-6.991-5.184-6.991a22.536,22.536,0,0,1,1.262-6.862" transform="translate(-0.205)" fill="none" stroke="#000" stroke-linecap="round" stroke-linejoin="round" stroke-width="2"/>
    <path id="Tracé_330" data-name="Tracé 330" d="M930.948,549.974s-1.73,9.594-8.645,13.09c-6.914-1.748-13.831,3.495-12.1,3.495s3.457,6.988,3.457,6.988c1.73,1.748,5.187,0,5.187,0,4.323,4.369-6.915,12.232-6.915,13.98" transform="translate(-0.574)" fill="none" stroke="#000" stroke-linecap="round" stroke-linejoin="round" stroke-width="2"/>
    <path id="Tracé_331" data-name="Tracé 331" d="M881.561,553.444S882.88,547,885.406,546s3.713-2.435,1.141-5.218" transform="translate(-0.272)" fill="none" stroke="#000" stroke-linecap="round" stroke-linejoin="round" stroke-width="2"/>
  </g>
</svg>
