<svg id="instaurez_icon" data-name="instaurez icon" xmlns="http://www.w3.org/2000/svg" xmlns:xlink="http://www.w3.org/1999/xlink" width="98" height="98" viewBox="0 0 98 98">
  <defs>
    <clipPath id="clip-path">
      <rect id="Rectangle_114" data-name="Rectangle 114" width="98" height="98" fill="none" stroke="#000" stroke-width="2"/>
    </clipPath>
  </defs>
  <g id="Groupe_255" data-name="Groupe 255" clip-path="url(#clip-path)">
    <path id="Tracé_231" data-name="Tracé 231" d="M7.144,72.515A48.013,48.013,0,0,1,49,1" fill="none" stroke="#000" stroke-linecap="round" stroke-linejoin="round" stroke-width="2"/>
    <path id="Tracé_232" data-name="Tracé 232" d="M63.728,3.3A48.006,48.006,0,1,1,15.212,83.094" fill="none" stroke="#000" stroke-linecap="round" stroke-linejoin="round" stroke-width="2"/>
    <path id="Tracé_233" data-name="Tracé 233" d="M86,27,72.026,31.98,53.04,26.849l-14.5,5.131-9.75,9.366s.513,7.441,9.493,1.411l12.188-5.306,3.079,1.328s22.708,17.448,24.888,18.86,3.336,4.76,1.54,6.742-5,2.637-8.6,0-8.339-6.229-8.339-6.229" fill="none" stroke="#000" stroke-linecap="round" stroke-linejoin="round" stroke-width="2"/>
    <path id="Tracé_234" data-name="Tracé 234" d="M93,51c-.385,0-9.042,2.918-9.042,2.918l-3.336,5.133" fill="none" stroke="#000" stroke-linecap="round" stroke-linejoin="round" stroke-width="2"/>
    <path id="Tracé_235" data-name="Tracé 235" d="M71.386,64.381c.641,1.982,1.283,3.137,0,5.19s-4.619,2.309-7.954,0-5.645-3.977-5.645-3.977" fill="none" stroke="#000" stroke-linecap="round" stroke-linejoin="round" stroke-width="2"/>
    <path id="Tracé_236" data-name="Tracé 236" d="M63.432,69.571a4.613,4.613,0,0,1,0,5.772c-1.282,1.284-3.849,2.438-7.056,0s-5.9-4.136-5.9-4.136" fill="none" stroke="#000" stroke-linecap="round" stroke-linejoin="round" stroke-width="2"/>
    <path id="Tracé_237" data-name="Tracé 237" d="M36.583,33.863l-7.79-.6L13,26" fill="none" stroke="#000" stroke-linecap="round" stroke-linejoin="round" stroke-width="2"/>
    <line id="Ligne_44" data-name="Ligne 44" x2="15.555" y2="8.244" transform="translate(7 50)" fill="none" stroke="#000" stroke-linecap="round" stroke-linejoin="round" stroke-width="2"/>
    <path id="Tracé_238" data-name="Tracé 238" d="M32.757,71.207c-.625.3-3.964-1.636-3.964-1.636a3.284,3.284,0,0,1-1.808-2.893c.029-1.876,1.657-3.818,2.321-5.061,1.026-1.926,1.8-5.133-1.154-6.416a3.494,3.494,0,0,0-4.491,1.411L21.4,59.948c-2.264,3.336,1.878,5.261,1.878,5.261a5.847,5.847,0,0,0,3.694.734" fill="none" stroke="#000" stroke-linecap="round" stroke-linejoin="round" stroke-width="2"/>
    <path id="Tracé_239" data-name="Tracé 239" d="M29.8,60.5a4.419,4.419,0,0,1,3.993,0c1.925,1.114,2.438,3.069,1.027,5.619s-3.849,5.244-.128,7.682c0,0,3.093,2.559,4.812,1.019" fill="none" stroke="#000" stroke-linecap="round" stroke-linejoin="round" stroke-width="2"/>
    <path id="Tracé_240" data-name="Tracé 240" d="M46.112,76.047c-.845.672-1.572,2.567-4.216,1.192-4.17-2.171-1.942-4.589-.787-6.9s1.282-4.746-1.283-5.959a4.128,4.128,0,0,0-4.518.689" fill="none" stroke="#000" stroke-linecap="round" stroke-linejoin="round" stroke-width="2"/>
    <path id="Tracé_241" data-name="Tracé 241" d="M40.642,71.207a3.768,3.768,0,0,1,4.187-.6c2.438,1.144,2.438,3.32,1.284,5.439,5.685,4.122,11.345,0,11.345,0" fill="none" stroke="#000" stroke-linecap="round" stroke-linejoin="round" stroke-width="2"/>
  </g>
</svg>
