<svg xmlns="http://www.w3.org/2000/svg" width="88" height="87.414" viewBox="0 0 88 87.414">
  <g id="icon-shooting-photo" transform="translate(-1167.333 -529)">
    <g id="Groupe_204" data-name="Groupe 204">
      <line id="Ligne_48" data-name="Ligne 48" y2="24.022" transform="translate(1211.333 590.978)" fill="none" stroke="#fff" stroke-linecap="round" stroke-miterlimit="10" stroke-width="2"/>
      <line id="Ligne_49" data-name="Ligne 49" y1="21.983" x2="22.365" transform="translate(1188.969 593.017)" fill="none" stroke="#fff" stroke-linecap="round" stroke-miterlimit="10" stroke-width="2"/>
      <line id="Ligne_50" data-name="Ligne 50" x1="21.983" y1="21.983" transform="translate(1211.333 593.017)" fill="none" stroke="#fff" stroke-linecap="round" stroke-miterlimit="10" stroke-width="2"/>
      <path id="Tracé_236" data-name="Tracé 236" d="M1214.264,568.1v21.409a1.47,1.47,0,0,1-1.465,1.466h-2.931a1.471,1.471,0,0,1-1.466-1.466V568.1" fill="none" stroke="#fff" stroke-linecap="round" stroke-linejoin="round" stroke-width="2"/>
      <line id="Ligne_51" data-name="Ligne 51" x2="20.517" transform="translate(1201.075 568.103)" fill="none" stroke="#fff" stroke-linecap="round" stroke-linejoin="round" stroke-width="2"/>
      <path id="Tracé_237" data-name="Tracé 237" d="M1234.782,559.717c0,3.059-2.931,4.524-5.161,4.524h-36.957c-1.848,0-4.779-1.465-4.779-4.524V539.392a4.327,4.327,0,0,1,4.4-4.461h14.655a4,4,0,0,1,3.995-3.931h9.073a4,4,0,0,1,3.995,3.995V535l6.067-.069a4.583,4.583,0,0,1,4.715,4.461Z" fill="none" stroke="#fff" stroke-linejoin="round" stroke-width="2"/>
      <circle id="Ellipse_19" data-name="Ellipse 19" cx="7.328" cy="7.328" r="7.328" transform="translate(1208.402 540.793)" fill="none" stroke="#fff" stroke-linejoin="round" stroke-width="2"/>
      <rect id="Rectangle_67" data-name="Rectangle 67" width="5.848" height="4.931" transform="translate(1194.511 530)" fill="none" stroke="#fff" stroke-miterlimit="10" stroke-width="2"/>
    </g>
    <path id="Tracé_238" data-name="Tracé 238" d="M1236.772,606.671a43,43,0,0,0,4.354-65.678" fill="none" stroke="#fff" stroke-miterlimit="10" stroke-width="2"/>
    <path id="Tracé_239" data-name="Tracé 239" d="M1181.537,541a43,43,0,0,0,4.987,66.128" fill="none" stroke="#fff" stroke-miterlimit="10" stroke-width="2"/>
    <path id="Tracé_240" data-name="Tracé 240" d="M1229.855,601.112A34.473,34.473,0,0,0,1245.833,572" fill="none" stroke="#fff" stroke-miterlimit="10" stroke-width="2"/>
    <path id="Tracé_241" data-name="Tracé 241" d="M1181,555.555A34.357,34.357,0,0,0,1176.833,572" fill="none" stroke="#fff" stroke-miterlimit="10" stroke-width="2"/>
  </g>
</svg>
