<?xml version="1.0" encoding="utf-8"?>
<!-- Generator: Adobe Illustrator 22.0.1, SVG Export Plug-In . SVG Version: 6.00 Build 0)  -->
<svg version="1.1" id="icons" xmlns="http://www.w3.org/2000/svg" xmlns:xlink="http://www.w3.org/1999/xlink" x="0px" y="0px"
	 width="67px" height="52.1px" viewBox="0 0 67 52.1" style="enable-background:new 0 0 67 52.1;" xml:space="preserve">
<style type="text/css">
	.st0{fill:#F3D536;}
	.st1{fill:#FFFFFF;}
</style>
<polygon class="st0" points="2.5,2.5 30.8,27.1 33.5,28.1 36.4,27.4 64.5,2.5 62.2,0.9 5.7,0.9 "/>
<path class="st1" d="M37.5,26.5l-4,1.6l-3.1-1.2L3.5,3.7c-0.6,0.7-1,1.6-1,2.6v39.7c0,2.1,1.7,3.7,3.7,3.7h54.6
	c2.1,0,3.7-1.7,3.7-3.7V6.2c0-1-0.4-1.9-1-2.5L37.5,26.5z"/>
<g>
	<path d="M60.8,0H6.2C2.8,0,0,2.8,0,6.2v39.7c0,3.4,2.8,6.2,6.2,6.2h54.6c3.4,0,6.2-2.8,6.2-6.2V6.2C67,2.8,64.2,0,60.8,0z
		 M64.5,45.9c0,2.1-1.7,3.7-3.7,3.7H6.2c-2.1,0-3.7-1.7-3.7-3.7V6.2c0-2.1,1.7-3.7,3.7-3.7h54.6c2.1,0,3.7,1.7,3.7,3.7V45.9z"/>
	<path d="M62.5,2.8l-26,22.8c-1.6,1.4-4.3,1.4-5.9,0L4.5,2.8C4,2.3,3.2,2.4,2.8,2.9C2.3,3.4,2.4,4.2,2.9,4.7l26,22.8
		c1.3,1.1,2.9,1.6,4.6,1.6s3.3-0.5,4.6-1.6l26-22.8c0.5-0.4,0.6-1.2,0.1-1.8C63.8,2.4,63,2.3,62.5,2.8z"/>
</g>
</svg>
