<svg xmlns="http://www.w3.org/2000/svg" width="86" height="90.659" viewBox="0 0 86 90.659">
  <g id="icon-usa" transform="translate(-519 -649.372)">
    <line id="Ligne_69" data-name="Ligne 69" y1="33.379" transform="translate(562 652.621)" fill="none" stroke="#fff" stroke-linecap="round" stroke-linejoin="round" stroke-width="2"/>
    <path id="Tracé_248" data-name="Tracé 248" d="M589,671.241h-4.323a20.757,20.757,0,0,1-6.112-.919l-1.158-.356A20.785,20.785,0,0,0,562,671.241h0v-18.62h0a20.78,20.78,0,0,1,15.407-1.275l1.158.356a20.792,20.792,0,0,0,6.112.919H589Z" fill="none" stroke="#fff" stroke-linecap="round" stroke-linejoin="round" stroke-width="2"/>
    <path id="Tracé_249" data-name="Tracé 249" d="M562,662a35,35,0,1,0,23.635,9.185" fill="none" stroke="#fff" stroke-linecap="round" stroke-linejoin="round" stroke-width="2"/>
    <path id="Tracé_250" data-name="Tracé 250" d="M603.953,695a42.052,42.052,0,0,0-9.62-24.81" fill="none" stroke="#fff" stroke-linecap="round" stroke-linejoin="round" stroke-width="2"/>
    <path id="Tracé_251" data-name="Tracé 251" d="M543.911,734.918A42.016,42.016,0,0,0,591.7,726.7" fill="none" stroke="#fff" stroke-linecap="round" stroke-linejoin="round" stroke-width="2"/>
    <path id="Tracé_252" data-name="Tracé 252" d="M532.3,667.3a42,42,0,0,0,0,59.4" fill="none" stroke="#fff" stroke-linecap="round" stroke-linejoin="round" stroke-width="2"/>
    <path id="Tracé_253" data-name="Tracé 253" d="M537.047,672.461l3.378,1.062a1.028,1.028,0,0,1,.821.881l.772,6.179a1.027,1.027,0,0,1-.065.509l-1.547,3.867a1.03,1.03,0,0,0-.005.751l2.343,9.29,4,3c0-1.064,1.417-2.427,1.929-1.494l.718,1.31a.976.976,0,0,1,.074.169l.718,2.152a1.025,1.025,0,0,0,.593.63l6.235,3.294a1.031,1.031,0,0,1,.474.384l1.44,2.161a1.031,1.031,0,0,0,.474.384l3.748,1.5a1.023,1.023,0,0,1,.593.629l.546,1.637a1.028,1.028,0,0,1-.248,1.052L562.1,713.75a1.027,1.027,0,0,0-.3.727v2a1.021,1.021,0,0,0,.129.5l2.415,4.353a1.032,1.032,0,0,0,.417.409l1.656.88a1.029,1.029,0,0,1,.493,1.233l-.566,1.7a1.018,1.018,0,0,1-.17.314L561.3,732" fill="none" stroke="#fff" stroke-linecap="round" stroke-linejoin="round" stroke-width="2"/>
    <path id="Tracé_254" data-name="Tracé 254" d="M576,670l.293,2.469a.9.9,0,0,1-1.1.923l-6.368-1.5a.884.884,0,0,0-.2-.024l.841,2.9,5.335,6.2a.9.9,0,0,1-.188,1.335l-5.727,3.759a.9.9,0,0,0-.356.457l-1.041,3.015a.9.9,0,0,1-.35.453l-2.051,1.368a.9.9,0,0,0-.4.728l-.052,2.485a.9.9,0,0,1-1.591.549l-1.034-1.262a.9.9,0,0,0-.789-.324l-6.315.672a.9.9,0,0,0-.785,1.068l.632,3.158a.894.894,0,0,0,.382.571l1.968,1.313a.9.9,0,0,0,.868.07l.907-.41a.9.9,0,0,1,1.267.818v.7a.9.9,0,0,0,.73.882l1.3.246a.9.9,0,0,1,.73.882v.972a.9.9,0,0,0,.565.834l3.385,1.354a.9.9,0,0,0,.955-.187l1.485-1.427a.9.9,0,0,1,1.138-.087l1.111.782a.9.9,0,0,0,.734.137l2.684-.671a.9.9,0,0,1,.868.251l1.938,2.036a.9.9,0,0,0,.65.278H580.2a.9.9,0,0,1,.852.614l.609,1.827a.887.887,0,0,0,.291.417l3.651,2.921a.9.9,0,0,1,.2,1.183l-5.755,9.044a.9.9,0,0,1-.237.25l-9.986,7.1" fill="none" stroke="#fff" stroke-linecap="round" stroke-linejoin="round" stroke-width="2"/>
    <path id="Tracé_255" data-name="Tracé 255" d="M543.914,667.029l5.28,2.491a2.693,2.693,0,0,0,2.349-.025l4.614-2.3a2.669,2.669,0,0,1,.7-.236L562,666" fill="none" stroke="#fff" stroke-linecap="round" stroke-linejoin="round" stroke-width="2"/>
  </g>
</svg>
