<?xml version="1.0" encoding="utf-8"?>
<!-- Generator: Adobe Illustrator 22.0.1, SVG Export Plug-In . SVG Version: 6.00 Build 0)  -->
<svg version="1.1" id="icons" xmlns="http://www.w3.org/2000/svg" xmlns:xlink="http://www.w3.org/1999/xlink" x="0px" y="0px"
	 width="54px" height="72px" viewBox="0 0 54 72" style="enable-background:new 0 0 54 72;" xml:space="preserve">
<style type="text/css">
	.st0{fill:#FFFFFF;}
	.st1{fill:#F3D536;}
</style>
<path d="M49,0H5C2.2,0,0,2.2,0,5v62c0,2.8,2.2,5,5,5h44c2.8,0,5-2.2,5-5V5C54,2.2,51.8,0,49,0z M5,2h44c1.7,0,3,1.3,3,3v6.5H2.2
	c-0.1,0-0.1,0-0.2,0V5C2,3.3,3.3,2,5,2z"/>
<path class="st0" d="M52,67c0,1.7-1.3,3-3,3H5c-1.7,0-3-1.3-3-3V13.5c0.1,0,0.1,0,0.2,0H52V67z"/>
<path d="M8,22.5v13c0,0.6,0.4,1,1,1h22c0.6,0,1-0.4,1-1v-13c0-0.6-0.4-1-1-1H9C8.4,21.5,8,21.9,8,22.5z"/>
<path d="M38,22h7c0.6,0,1,0.4,1,1s-0.4,1-1,1h-7c-0.6,0-1-0.4-1-1S37.4,22,38,22z"/>
<path d="M37.1,5.6h-2c-0.6,0-1,0.4-1,1s0.4,1,1,1h2c0.6,0,1-0.4,1-1C38.1,6.1,37.7,5.6,37.1,5.6z"/>
<path d="M42.5,5.6h-2c-0.6,0-1,0.4-1,1s0.4,1,1,1h2c0.6,0,1-0.4,1-1C43.5,6.1,43.1,5.6,42.5,5.6z"/>
<path d="M47.9,5.6h-2c-0.6,0-1,0.4-1,1s0.4,1,1,1h2c0.6,0,1-0.4,1-1C48.9,6.1,48.5,5.6,47.9,5.6z"/>
<path d="M38,28h7c0.6,0,1,0.4,1,1s-0.4,1-1,1h-7c-0.6,0-1-0.4-1-1S37.4,28,38,28z"/>
<path d="M38,34h7c0.6,0,1,0.4,1,1s-0.4,1-1,1h-7c-0.6,0-1-0.4-1-1S37.4,34,38,34z"/>
<path d="M45,45.8H32c-0.6,0-1,0.4-1,1v13c0,0.6,0.4,1,1,1h13c0.6,0,1-0.4,1-1v-13C46,46.2,45.6,45.8,45,45.8z"/>
<path d="M22.9,45.8h-13c-0.6,0-1,0.4-1,1v13c0,0.6,0.4,1,1,1h13c0.6,0,1-0.4,1-1v-13C23.9,46.2,23.4,45.8,22.9,45.8z"/>
<rect x="10" y="23.5" class="st1" width="20" height="11"/>
<rect x="33" y="47.8" class="st1" width="11" height="11"/>
<rect x="10.9" y="47.8" class="st1" width="11" height="11"/>
</svg>
