<svg xmlns="http://www.w3.org/2000/svg" width="81" height="87" viewBox="0 0 81 87">
  <g id="icon-presse" transform="translate(-1173 -647)">
    <line id="Ligne_60" data-name="Ligne 60" x2="40" transform="translate(1213 659)" fill="none" stroke="#fff" stroke-miterlimit="10" stroke-width="2"/>
    <line id="Ligne_61" data-name="Ligne 61" x2="39.68" transform="translate(1213.409 707.248)" fill="none" stroke="#fff" stroke-miterlimit="10" stroke-width="2"/>
    <ellipse id="Ellipse_20" data-name="Ellipse 20" cx="0.763" cy="0.699" rx="0.763" ry="0.699" transform="translate(1232.486 712.323)" fill="none" stroke="#fff" stroke-linejoin="round" stroke-width="2"/>
    <line id="Ligne_62" data-name="Ligne 62" x2="23" transform="translate(1190 681)" fill="none" stroke="#fff" stroke-linecap="round" stroke-linejoin="round" stroke-width="2"/>
    <rect id="Rectangle_68" data-name="Rectangle 68" width="18" height="16" transform="translate(1190 687)" fill="none" stroke="#fff" stroke-linecap="round" stroke-linejoin="round" stroke-width="2"/>
    <rect id="Rectangle_69" data-name="Rectangle 69" width="28" height="16" transform="translate(1219 665)" fill="none" stroke="#fff" stroke-linecap="round" stroke-linejoin="round" stroke-width="2"/>
    <line id="Ligne_63" data-name="Ligne 63" x2="17" transform="translate(1190 715)" fill="none" stroke="#fff" stroke-linecap="round" stroke-linejoin="round" stroke-width="2"/>
    <line id="Ligne_64" data-name="Ligne 64" x2="15" transform="translate(1190 721)" fill="none" stroke="#fff" stroke-linecap="round" stroke-linejoin="round" stroke-width="2"/>
    <line id="Ligne_65" data-name="Ligne 65" x2="17" transform="translate(1190 709)" fill="none" stroke="#fff" stroke-linecap="round" stroke-linejoin="round" stroke-width="2"/>
    <line id="Ligne_66" data-name="Ligne 66" x2="17" transform="translate(1219 693)" fill="none" stroke="#fff" stroke-linecap="round" stroke-linejoin="round" stroke-width="2"/>
    <line id="Ligne_67" data-name="Ligne 67" x2="15" transform="translate(1219 699)" fill="none" stroke="#fff" stroke-linecap="round" stroke-linejoin="round" stroke-width="2"/>
    <line id="Ligne_68" data-name="Ligne 68" x2="17" transform="translate(1219 687)" fill="none" stroke="#fff" stroke-linecap="round" stroke-linejoin="round" stroke-width="2"/>
    <path id="Tracé_245" data-name="Tracé 245" d="M1213,671h-31v55.643" fill="none" stroke="#fff" stroke-linecap="round" stroke-linejoin="round" stroke-width="2"/>
    <path id="Tracé_246" data-name="Tracé 246" d="M1178,733h52a4,4,0,0,0,4-4V718" fill="none" stroke="#fff" stroke-linecap="round" stroke-linejoin="round" stroke-width="2"/>
    <path id="Tracé_247" data-name="Tracé 247" d="M1174,729V679h8v50a4,4,0,0,1-4,4h0A4,4,0,0,1,1174,729Z" fill="none" stroke="#fff" stroke-linecap="round" stroke-linejoin="round" stroke-width="2"/>
    <rect id="Rectangle_70" data-name="Rectangle 70" width="40" height="70" rx="7.833" transform="translate(1213 648)" fill="none" stroke="#fff" stroke-miterlimit="10" stroke-width="2"/>
  </g>
</svg>
