<svg xmlns="http://www.w3.org/2000/svg" width="96.797" height="99.381" viewBox="0 0 96.797 99.381">
  <g id="branding" transform="translate(-1045.487 -648.935)">
    <path id="Tracé_242" data-name="Tracé 242" d="M1133.236,702.758l1.668-1.668a2.726,2.726,0,0,0,0-3.856l-1.668-1.668a2.727,2.727,0,0,1-.433-3.292l1.179-2.042a2.727,2.727,0,0,0-1-3.725l-2.043-1.18a2.725,2.725,0,0,1-1.27-3.067l.61-2.279a2.726,2.726,0,0,0-1.928-3.339l-2.279-.611a2.727,2.727,0,0,1-2.021-2.634v-2.359a2.726,2.726,0,0,0-2.726-2.727h-2.359a2.725,2.725,0,0,1-2.634-2.021l-.611-2.278a2.726,2.726,0,0,0-3.339-1.928l-2.279.61a2.725,2.725,0,0,1-3.067-1.27l-1.18-2.043a2.727,2.727,0,0,0-3.725-1l-2.043,1.179a2.726,2.726,0,0,1-3.291-.433l-1.668-1.668a2.726,2.726,0,0,0-3.856,0l-1.668,1.668a2.727,2.727,0,0,1-3.292.433l-2.043-1.179a2.727,2.727,0,0,0-3.725,1l-1.179,2.043a2.726,2.726,0,0,1-3.068,1.27l-2.278-.61a2.727,2.727,0,0,0-3.34,1.928l-.61,2.278a2.727,2.727,0,0,1-2.634,2.021h-2.359a2.727,2.727,0,0,0-2.727,2.727V673.4a2.727,2.727,0,0,1-2.021,2.634l-2.279.611a2.726,2.726,0,0,0-1.928,3.339l.611,2.279a2.727,2.727,0,0,1-1.271,3.067l-2.043,1.18a2.727,2.727,0,0,0-1,3.725l1.18,2.042a2.727,2.727,0,0,1-.434,3.292l-1.668,1.668a2.726,2.726,0,0,0,0,3.856l1.668,1.668a2.727,2.727,0,0,1,.434,3.292l-1.18,2.043a2.727,2.727,0,0,0,1,3.725l2.043,1.179a2.727,2.727,0,0,1,1.271,3.067l-.611,2.279a2.727,2.727,0,0,0,1.928,3.34l2.279.61a2.728,2.728,0,0,1,2.021,2.634v2.359a2.727,2.727,0,0,0,2.727,2.727h2.359a2.728,2.728,0,0,1,2.634,2.021l.61,2.278a2.728,2.728,0,0,0,3.34,1.929l2.278-.611a2.728,2.728,0,0,1,3.068,1.271l1.179,2.042a2.727,2.727,0,0,0,3.725,1l2.043-1.18a2.729,2.729,0,0,1,3.292.433l1.668,1.668a2.726,2.726,0,0,0,3.856,0l1.668-1.668a2.727,2.727,0,0,1,3.291-.433l2.043,1.18a2.726,2.726,0,0,0,3.725-1l1.18-2.042a2.727,2.727,0,0,1,3.067-1.271l2.279.611a2.727,2.727,0,0,0,3.339-1.929l.611-2.278a2.726,2.726,0,0,1,2.634-2.021h2.359a2.726,2.726,0,0,0,2.726-2.727v-2.359a2.728,2.728,0,0,1,2.021-2.634l2.279-.61a2.727,2.727,0,0,0,1.928-3.34l-.61-2.279a2.725,2.725,0,0,1,1.27-3.067l2.043-1.179a2.727,2.727,0,0,0,1-3.725l-1.179-2.043A2.727,2.727,0,0,1,1133.236,702.758Z" fill="none" stroke="#fff" stroke-linecap="round" stroke-linejoin="round" stroke-width="2"/>
    <path id="Tracé_243" data-name="Tracé 243" d="M1093.2,681.823l5.408,10.957,12.092,1.757-8.75,8.529,2.066,12.043-10.816-5.686-10.816,5.686,2.066-12.043-8.75-8.529,12.092-1.757Z" fill="none" stroke="#fff" stroke-miterlimit="10" stroke-width="2"/>
    <path id="Tracé_244" data-name="Tracé 244" d="M1125.3,699.07a32,32,0,1,0-32,32A32,32,0,0,0,1125.3,699.07Z" fill="none" stroke="#fff" stroke-miterlimit="10" stroke-width="2"/>
    <line id="Ligne_52" data-name="Ligne 52" x1="8.608" y1="8.649" transform="translate(1050.392 656.351)" fill="none" stroke="#fff" stroke-linejoin="round" stroke-width="2"/>
    <line id="Ligne_53" data-name="Ligne 53" x1="3.77" y1="1.459" transform="translate(1045.848 676.619)" fill="none" stroke="#fff" stroke-linejoin="round" stroke-width="2"/>
    <line id="Ligne_54" data-name="Ligne 54" y1="3.973" x2="6.311" transform="translate(1131 668.027)" fill="none" stroke="#fff" stroke-linejoin="round" stroke-width="2"/>
    <line id="Ligne_55" data-name="Ligne 55" x2="3.77" y2="1.135" transform="translate(1138.225 711.369)" fill="none" stroke="#fff" stroke-linejoin="round" stroke-width="2"/>
    <line id="Ligne_56" data-name="Ligne 56" x1="7.905" y2="5.757" transform="translate(1049.095 728)" fill="none" stroke="#fff" stroke-linejoin="round" stroke-width="2"/>
    <line id="Ligne_57" data-name="Ligne 57" x1="3.176" y2="1.784" transform="translate(1047.498 720.868)" fill="none" stroke="#fff" stroke-linejoin="round" stroke-width="2"/>
    <line id="Ligne_58" data-name="Ligne 58" x2="2" y2="6" transform="translate(1108 742)" fill="none" stroke="#fff" stroke-linejoin="round" stroke-width="2"/>
    <line id="Ligne_59" data-name="Ligne 59" y1="6" x2="0.392" transform="translate(1098 649)" fill="none" stroke="#fff" stroke-linejoin="round" stroke-width="2"/>
  </g>
</svg>
